<svg width="161" height="34" viewBox="0 0 161 34" fill="none" xmlns="http://www.w3.org/2000/svg">
<path fill-rule="evenodd" clip-rule="evenodd" d="M10.6811 14.6943C10.4396 11.818 12.7743 7.73194 17.6048 5.98464C20.4495 4.96313 24.6628 4.10292 31.7207 5.42012C24.958 8.02764 23.9113 15.6083 19.215 17.9201C16.7193 19.1566 14.2772 19.2642 11.9693 17.7319C11.8619 17.947 11.7546 18.1351 11.6472 18.3233C11.8082 18.4308 11.9693 18.5384 12.2108 18.6728C12.9085 19.0491 13.6331 19.291 14.3577 19.4255V27.92H21.2009C22.4085 27.92 23.6161 27.7856 24.8238 27.5168C26.0582 27.248 27.1585 26.6835 28.1515 25.877C29.1444 25.0706 29.9763 23.9416 30.6204 22.49C31.2645 21.0384 31.5865 19.1566 31.5865 16.8448C31.5865 14.5061 31.2645 12.6244 30.6204 11.1728C30.0568 9.93624 29.3859 8.91473 28.554 8.16205C29.4933 7.30184 30.5935 6.57603 31.9622 6.06528L34.0554 5.25883C35.2094 6.54915 36.095 8.00076 36.739 9.66742C37.571 11.7911 38.0003 14.1835 38.0003 16.8179C38.0003 19.4792 37.571 21.8986 36.739 24.0222C35.9071 26.1459 34.6458 27.9738 33.0088 29.4792C31.506 30.8501 29.7616 31.8985 27.7489 32.5975C25.7362 33.2964 23.5625 33.6458 21.1741 33.6458H7.91699V24.8555V22.3287C10.5738 15.0975 15.78 9.82871 25.3873 8.00076C20.2348 8.40398 15.2433 10.0706 10.6811 14.6943Z" fill="#4BAF47"/>
<path fill-rule="evenodd" clip-rule="evenodd" d="M7.91699 10.0685V0H21.2082C26.0242 0 29.9793 1.37779 33.0734 4.15986C33.4232 4.47781 33.746 4.79577 34.042 5.11372L31.8896 4.71628C27.0197 3.81542 22.0961 3.60345 17.3876 5.29919C17.0648 5.43167 16.7419 5.56415 16.4191 5.72312H14.3743V6.88894C12.2218 8.39921 10.4461 10.5984 10.0694 13.0625C9.63893 11.8967 8.83177 10.8103 7.91699 10.0685Z" fill="#4BAF47"/>
<path fill-rule="evenodd" clip-rule="evenodd" d="M9.22347 16.4378C9.88607 14.938 9.409 12.3203 7.23565 10.466C5.93694 9.40252 3.92262 8.14817 0 7.521C2.5444 9.53887 2.17335 14.4199 4.18767 16.5469C5.27434 17.6922 6.49353 18.2103 7.97777 17.8285C8.11029 18.4829 8.21631 19.1101 8.24281 19.7918L8.98493 18.4557C8.37533 15.1834 6.52004 12.3203 2.80945 10.0842C5.40686 11.2841 7.68622 13.111 9.22347 16.4378Z" fill="#4BAF47"/>
<path d="M160.727 8.23926V25.7404H157.531L149.917 14.7253H149.789V25.7404H146.089V8.23926H149.336L156.89 19.2458H157.044V8.23926H160.727Z" fill="white"/>
<path d="M131.354 25.7404V8.23926H143.147V11.29H135.055V15.4602H142.541V18.5109H135.055V22.6897H143.181V25.7404H131.354Z" fill="white"/>
<path d="M115.562 25.7404V8.23926H122.467C123.789 8.23926 124.917 8.47568 125.851 8.94853C126.791 9.41569 127.506 10.0794 127.996 10.9396C128.492 11.7942 128.74 12.7997 128.74 13.9562C128.74 15.1184 128.489 16.1182 127.988 16.9556C127.486 17.7874 126.76 18.4255 125.809 18.8698C124.863 19.3142 123.718 19.5364 122.373 19.5364H117.75V16.5625H121.775C122.481 16.5625 123.068 16.4657 123.535 16.272C124.003 16.0783 124.35 15.7878 124.578 15.4004C124.812 15.013 124.928 14.5316 124.928 13.9562C124.928 13.3751 124.812 12.8851 124.578 12.4864C124.35 12.0876 124 11.7856 123.527 11.5805C123.06 11.3698 122.47 11.2644 121.758 11.2644H119.263V25.7404H115.562ZM125.014 17.776L129.363 25.7404H125.279L121.023 17.776H125.014Z" fill="white"/>
<path d="M108.861 13.8964C108.741 13.4805 108.573 13.113 108.356 12.794C108.14 12.4693 107.875 12.1958 107.562 11.9736C107.254 11.7458 106.901 11.572 106.502 11.4524C106.109 11.3327 105.673 11.2729 105.195 11.2729C104.3 11.2729 103.514 11.4951 102.836 11.9395C102.164 12.3838 101.64 13.0304 101.264 13.8793C100.888 14.7224 100.7 15.7536 100.7 16.9727C100.7 18.1919 100.885 19.2288 101.255 20.0833C101.625 20.9379 102.15 21.5902 102.828 22.0402C103.505 22.4846 104.306 22.7068 105.229 22.7068C106.066 22.7068 106.781 22.5586 107.374 22.2624C107.972 21.9605 108.428 21.536 108.741 20.9891C109.06 20.4422 109.22 19.7956 109.22 19.0493L109.972 19.1604H105.46V16.3746H112.783V18.5793C112.783 20.1175 112.458 21.4392 111.809 22.5444C111.159 23.6439 110.265 24.4928 109.126 25.091C107.986 25.6834 106.682 25.9797 105.212 25.9797C103.571 25.9797 102.13 25.6179 100.888 24.8944C99.6458 24.1652 98.6773 23.1312 97.9822 21.7924C97.2929 20.4479 96.9482 18.8528 96.9482 17.0069C96.9482 15.5884 97.1533 14.3237 97.5635 13.2127C97.9794 12.0961 98.5605 11.1504 99.3068 10.3756C100.053 9.60085 100.922 9.01121 101.913 8.60673C102.904 8.20224 103.978 8 105.135 8C106.126 8 107.049 8.14527 107.904 8.43582C108.758 8.72067 109.516 9.12515 110.177 9.64928C110.843 10.1734 111.387 10.7972 111.809 11.5207C112.23 12.2386 112.501 13.0304 112.621 13.8964H108.861Z" fill="white"/>
<path d="M83.4033 8.23926L87.6334 21.536H87.7957L92.0343 8.23926H96.1361L90.103 25.7404H85.3346L79.293 8.23926H83.4033Z" fill="white"/>
<path d="M65.5078 25.7404V8.23926H77.3006V11.29H69.208V15.4602H76.6938V18.5109H69.208V22.6897H77.3348V25.7404H65.5078Z" fill="white"/>
<path d="M54.204 25.7404H48V8.23926H54.2553C56.0157 8.23926 57.5311 8.58962 58.8015 9.29035C60.0719 9.98538 61.0489 10.9852 61.7326 12.2898C62.4219 13.5944 62.7666 15.1554 62.7666 16.9727C62.7666 18.7958 62.4219 20.3624 61.7326 21.6727C61.0489 22.983 60.0662 23.9886 58.7844 24.6893C57.5083 25.39 55.9815 25.7404 54.204 25.7404ZM51.7002 22.57H54.0502C55.144 22.57 56.0641 22.3763 56.8104 21.9889C57.5624 21.5958 58.1264 20.9891 58.5024 20.1687C58.8841 19.3427 59.0749 18.2773 59.0749 16.9727C59.0749 15.6795 58.8841 14.6227 58.5024 13.8024C58.1264 12.982 57.5652 12.3781 56.8189 11.9907C56.0726 11.6033 55.1526 11.4096 54.0587 11.4096H51.7002V22.57Z" fill="white"/>
</svg>
